<svg xmlns="http://www.w3.org/2000/svg" xmlns:xlink="http://www.w3.org/1999/xlink" width="500" zoomAndPan="magnify" viewBox="0 0 375 374.999991" height="500" preserveAspectRatio="xMidYMid meet" version="1.0"><defs><g/><clipPath id="011e6ad524"><path d="M 84.898438 160.394531 L 212.398438 160.394531 L 212.398438 206.144531 L 84.898438 206.144531 Z M 84.898438 160.394531 " clip-rule="nonzero"/></clipPath></defs><g clip-path="url(#011e6ad524)"><path fill="#d2c2b0" d="M 84.898438 107.347656 L 212.398438 107.347656 L 212.398438 234.847656 L 84.898438 234.847656 Z M 84.898438 107.347656 " fill-opacity="1" fill-rule="nonzero"/></g><g fill="#ffffff" fill-opacity="1"><g transform="translate(84.899164, 251.081028)"><g><path d="M 18.050781 -33.023438 C 8.933594 -33.023438 1.570312 -26.867188 1.570312 -15.816406 C 1.570312 -4.890625 8.332031 0.84375 17.265625 0.84375 C 25.660156 0.84375 31.816406 -3.320312 33.085938 -11.410156 L 23.726562 -11.410156 C 23.003906 -7.667969 20.707031 -5.675781 17.8125 -5.675781 C 13.886719 -5.675781 11.289062 -8.933594 11.289062 -16.421875 C 11.289062 -23.246094 13.824219 -26.503906 17.8125 -26.503906 C 20.949219 -26.503906 23.183594 -24.695312 23.847656 -20.285156 L 33.085938 -20.285156 C 32.601562 -27.46875 27.046875 -33.023438 18.050781 -33.023438 Z M 18.050781 -33.023438 "/></g></g></g><g fill="#ffffff" fill-opacity="1"><g transform="translate(116.475236, 251.081028)"><g><path d="M 18.535156 -33.023438 C 7.847656 -33.023438 1.570312 -26.140625 1.570312 -16.121094 C 1.570312 -6.097656 7.847656 0.84375 18.535156 0.84375 C 29.160156 0.84375 35.5 -6.097656 35.5 -16.121094 C 35.5 -26.140625 29.160156 -33.023438 18.535156 -33.023438 Z M 18.535156 -5.675781 C 14.007812 -5.675781 11.289062 -9.417969 11.289062 -16.121094 C 11.289062 -22.820312 14.007812 -26.503906 18.535156 -26.503906 C 23.003906 -26.503906 25.71875 -22.820312 25.71875 -16.121094 C 25.71875 -9.417969 23.003906 -5.675781 18.535156 -5.675781 Z M 18.535156 -5.675781 "/></g></g></g><g fill="#ffffff" fill-opacity="1"><g transform="translate(150.46631, 251.081028)"><g><path d="M 53.128906 -24.996094 C 52.40625 -29.402344 48.84375 -33.023438 42.5625 -33.023438 C 39.667969 -33.023438 37.554688 -32.421875 35.679688 -31.152344 L 32.421875 -26.804688 C 31.09375 -30.367188 27.773438 -33.023438 22.398438 -33.023438 C 19.441406 -33.023438 17.386719 -32.421875 15.457031 -31.152344 L 13.039062 -27.167969 L 13.039062 -32.179688 L 3.5625 -32.179688 L 3.5625 0 L 13.039062 0 L 13.039062 -16.722656 C 13.039062 -23.304688 14.792969 -26.503906 18.414062 -26.503906 C 21.492188 -26.503906 23.125 -24.695312 23.546875 -21.492188 C 23.726562 -19.863281 23.789062 -18.113281 23.789062 -16.601562 L 23.789062 0 L 33.207031 0 L 33.207031 -16.722656 C 33.207031 -23.304688 35.015625 -26.503906 38.640625 -26.503906 C 41.660156 -26.503906 43.347656 -24.695312 43.710938 -21.492188 C 43.894531 -19.863281 43.953125 -18.113281 43.953125 -16.601562 L 43.953125 0 L 53.433594 0 L 53.433594 -19.019531 C 53.433594 -21.613281 53.371094 -23.363281 53.128906 -24.996094 Z M 53.128906 -24.996094 "/></g></g></g><g fill="#ffffff" fill-opacity="1"><g transform="translate(204.079233, 251.081028)"><g><path d="M 14.1875 -35.5625 C 14.488281 -38.339844 17.265625 -39.425781 21.191406 -38.699219 L 21.191406 -45.101562 C 20.105469 -45.339844 18.835938 -45.523438 17.570312 -45.523438 C 8.875 -45.523438 5.191406 -42.082031 4.710938 -36.40625 C 4.648438 -35.320312 4.648438 -33.808594 4.648438 -32.785156 L 4.648438 -31.9375 L 1.207031 -31.9375 L 1.207031 -25.902344 L 4.648438 -25.902344 L 4.648438 0 L 14.066406 0 L 14.066406 -25.902344 L 20.648438 -25.902344 L 20.648438 -31.9375 L 14.066406 -31.9375 L 14.066406 -32.90625 C 14.066406 -33.75 14.066406 -34.714844 14.1875 -35.5625 Z M 14.1875 -35.5625 "/></g></g></g><g fill="#ffffff" fill-opacity="1"><g transform="translate(222.553955, 251.081028)"><g><path d="M 18.535156 -33.023438 C 7.847656 -33.023438 1.570312 -26.140625 1.570312 -16.121094 C 1.570312 -6.097656 7.847656 0.84375 18.535156 0.84375 C 29.160156 0.84375 35.5 -6.097656 35.5 -16.121094 C 35.5 -26.140625 29.160156 -33.023438 18.535156 -33.023438 Z M 18.535156 -5.675781 C 14.007812 -5.675781 11.289062 -9.417969 11.289062 -16.121094 C 11.289062 -22.820312 14.007812 -26.503906 18.535156 -26.503906 C 23.003906 -26.503906 25.71875 -22.820312 25.71875 -16.121094 C 25.71875 -9.417969 23.003906 -5.675781 18.535156 -5.675781 Z M 18.535156 -5.675781 "/></g></g></g><g fill="#ffffff" fill-opacity="1"><g transform="translate(256.545034, 251.081028)"><g><path d="M 21.3125 -33.023438 C 19.441406 -33.023438 17.085938 -32.179688 15.457031 -30.488281 L 13.039062 -26.023438 L 13.039062 -32.179688 L 3.5625 -32.179688 L 3.5625 0 L 13.039062 0 L 13.039062 -13.464844 C 13.039062 -22.582031 16.242188 -25.597656 23.726562 -25.117188 L 23.726562 -32.785156 C 23.003906 -32.90625 22.339844 -33.023438 21.3125 -33.023438 Z M 21.3125 -33.023438 "/></g></g></g><g fill="#ffffff" fill-opacity="1"><g transform="translate(277.555493, 251.081028)"><g><path d="M 14.914062 -25.902344 L 21.734375 -25.902344 L 21.734375 -31.9375 L 14.914062 -31.9375 L 14.914062 -40.027344 L 5.433594 -40.027344 L 5.433594 -31.9375 L 0.542969 -31.9375 L 0.542969 -25.902344 L 5.433594 -25.902344 L 5.433594 -11.109375 C 5.433594 -9.296875 5.433594 -7.847656 5.554688 -6.21875 C 5.917969 -1.507812 8.210938 0.785156 15.273438 0.785156 C 17.328125 0.785156 19.199219 0.605469 21.132812 0.300781 L 21.132812 -5.734375 C 16.300781 -5.433594 15.214844 -6.160156 14.972656 -9.359375 C 14.914062 -10.203125 14.914062 -11.289062 14.914062 -12.375 Z M 14.914062 -25.902344 "/></g></g></g><g fill="#ffffff" fill-opacity="1"><g transform="translate(92.063554, 198.837071)"><g><path d="M 17.304688 -30.835938 C 7.328125 -30.835938 1.464844 -24.410156 1.464844 -15.050781 C 1.464844 -5.695312 7.328125 0.789062 17.304688 0.789062 C 27.226562 0.789062 33.144531 -5.695312 33.144531 -15.050781 C 33.144531 -24.410156 27.226562 -30.835938 17.304688 -30.835938 Z M 17.304688 -5.296875 C 13.078125 -5.296875 10.542969 -8.792969 10.542969 -15.050781 C 10.542969 -21.308594 13.078125 -24.746094 17.304688 -24.746094 C 21.476562 -24.746094 24.011719 -21.308594 24.011719 -15.050781 C 24.011719 -8.792969 21.476562 -5.296875 17.304688 -5.296875 Z M 17.304688 -5.296875 "/></g></g></g><g fill="#ffffff" fill-opacity="1"><g transform="translate(131.577625, 198.837071)"><g><path d="M 32.300781 -22.546875 C 31.625 -27.789062 27.960938 -30.835938 21.644531 -30.835938 C 18.828125 -30.835938 16.683594 -30.269531 14.65625 -28.917969 L 12.175781 -25.308594 L 12.175781 -30.046875 L 3.324219 -30.046875 L 3.324219 0 L 12.175781 0 L 12.175781 -13.921875 C 12.175781 -21.589844 14.769531 -24.746094 18.265625 -24.746094 C 21.703125 -24.746094 23.394531 -22.828125 23.617188 -19.785156 C 23.730469 -18.265625 23.730469 -16.742188 23.730469 -15.613281 L 23.730469 0 L 32.582031 0 L 32.582031 -16.96875 C 32.582031 -19.390625 32.527344 -21.027344 32.300781 -22.546875 Z M 32.300781 -22.546875 "/></g></g></g><g fill="#ffffff" fill-opacity="1"><g transform="translate(172.106307, 198.837071)"><g><path d="M 31.566406 -15.558594 C 31.566406 -23.5625 26.605469 -30.835938 17.023438 -30.835938 C 7.496094 -30.835938 1.464844 -23.957031 1.464844 -14.9375 C 1.464844 -4.339844 8.0625 0.789062 16.460938 0.789062 C 23.789062 0.789062 29.425781 -2.875 31.058594 -9.808594 L 22.324219 -9.808594 C 21.816406 -6.988281 19.730469 -5.296875 16.628906 -5.296875 C 13.304688 -5.296875 10.824219 -6.988281 10.316406 -12.738281 L 31.398438 -12.738281 C 31.511719 -13.8125 31.566406 -14.769531 31.566406 -15.558594 Z M 16.628906 -24.746094 C 19.898438 -24.746094 21.871094 -22.546875 22.378906 -18.320312 L 10.542969 -18.320312 C 11.273438 -22.773438 13.472656 -24.746094 16.628906 -24.746094 Z M 16.628906 -24.746094 "/></g></g></g></svg>